<svg xmlns="http://www.w3.org/2000/svg" viewBox="0 0 64 64" width="32" height="32"><title>abc</title><g class="nc-icon-wrapper" stroke-linecap="round" stroke-linejoin="round" stroke-width="2" stroke="currentColor"><path data-color="color-2" fill="none" stroke-miterlimit="10" d="M40,27H30 c-4.418,0-8-3.582-8-8v0c0-4.418,3.582-8,8-8h10V27z"/> <path data-color="color-2" fill="none" stroke-miterlimit="10" d="M28,3h6 c3.314,0,6,2.686,6,6v18"/> <line fill="none" stroke="currentColor" stroke-miterlimit="10" x1="3" y1="24" x2="3" y2="56"/> <path fill="none" stroke="currentColor" stroke-miterlimit="10" d="M12,56H3V38h9 c4.971,0,9,4.029,9,9v0C21,51.971,16.971,56,12,56z"/> <path fill="none" stroke="currentColor" stroke-miterlimit="10" d="M61,41h-6 c-5.523,0-10,4.477-10,10v0c0,5.523,4.477,10,10,10h6"/></g></svg>