<svg xmlns="http://www.w3.org/2000/svg" viewBox="0 0 64 64" width="32" height="32"><title>add person</title><g class="nc-icon-wrapper" stroke-linecap="round" stroke-linejoin="round" stroke-width="2" stroke="currentColor"><path fill="none" stroke="currentColor" stroke-miterlimit="10" d="M62,52.498 c0-3.205-1.889-6.123-4.847-7.358C53.453,43.595,47.365,42,38,42s-15.453,1.595-19.153,3.14C15.889,46.375,14,49.293,14,52.498V62 h48V52.498z"/> <path fill="none" stroke="currentColor" stroke-miterlimit="10" d="M38,34L38,34 c-7.732,0-14-6.268-14-14v-4c0-7.732,6.268-14,14-14h0c7.732,0,14,6.268,14,14v4C52,27.732,45.732,34,38,34z"/> <line data-color="color-2" fill="none" stroke-miterlimit="10" x1="10" y1="24" x2="10" y2="40"/> <line data-color="color-2" fill="none" stroke-miterlimit="10" x1="2" y1="32" x2="18" y2="32"/></g></svg>