<svg width="32" height="32" viewBox="0 0 64 64" xmlns="http://www.w3.org/2000/svg"><title>add element</title><g fill="none" class="nc-icon-wrapper" stroke-width="2"><path d="M14.583 22.917L32 30.833l17.417-7.916" stroke="currentColor" stroke-miterlimit="10" stroke-linecap="round" stroke-linejoin="round"/><path d="M32 30.833V53" stroke="currentColor" stroke-miterlimit="10" stroke-linecap="round" stroke-linejoin="round"/><path d="M49.417 22.917L32 15l-17.417 7.917v22.166L32 53l17.417-7.917V22.917z" stroke="currentColor" stroke-miterlimit="10" stroke-linecap="round" stroke-linejoin="round"/><path d="M23.292 26.875L32 30.833l8.708-3.958" stroke="currentColor" stroke-miterlimit="10" stroke-linecap="round" stroke-linejoin="round"/><path d="M32 30.833v11.084" stroke="currentColor" stroke-miterlimit="10" stroke-linecap="round" stroke-linejoin="round"/><path d="M40.708 26.875l8.709-3.958" stroke="currentColor" stroke-miterlimit="10" stroke-linecap="round" stroke-linejoin="round"/><path d="M40.708 18.958L32 15l-8.708 3.958" stroke="currentColor" stroke-miterlimit="10" stroke-linecap="round" stroke-linejoin="round"/><path d="M32 34v11.083M14.583 34v11.083l8.709 3.959" stroke="currentColor" stroke-miterlimit="10" stroke-linecap="round" stroke-linejoin="round"/><path d="M32 41.917V53" stroke="currentColor" stroke-miterlimit="10" stroke-linecap="round" stroke-linejoin="round"/><path d="M49.417 34v11.083l-8.709 3.959" stroke="currentColor" stroke-miterlimit="10" stroke-linecap="round" stroke-linejoin="round"/><path d="M47 7v10" stroke="currentColor" stroke-miterlimit="10" stroke-linecap="round" stroke-linejoin="round"/><path d="M52 12H42" stroke="currentColor" stroke-miterlimit="10" stroke-linecap="round" stroke-linejoin="round"/></g></svg>