<svg xmlns="http://www.w3.org/2000/svg" viewBox="0 0 64 64" stroke="none" width="32" height="32"><title>artificial intelligence</title><g class="nc-icon-wrapper" stroke-linecap="round" stroke-linejoin="round" stroke-width="2" stroke="currentColor"><path d="M57.651,44.049A8.971,8.971,0,0,1,51,47H47" fill="none" stroke="currentColor" stroke-miterlimit="10"/><path d="M6.349,44.049A8.971,8.971,0,0,0,13,47h4" fill="none" stroke="currentColor" stroke-miterlimit="10"/><path d="M22,21h2.5A7.5,7.5,0,0,0,32,13.5v-2a7.5,7.5,0,0,0-14.858-1.442C16.766,10.022,16.385,10,16,10A11.989,11.989,0,0,0,7.751,30.7a8.972,8.972,0,0,0-1.4,13.349A13,13,0,1,0,32,47" fill="none" stroke="currentColor" stroke-miterlimit="10"/><path d="M42,21H39.5A7.5,7.5,0,0,1,32,13.5v-2a7.5,7.5,0,0,1,14.858-1.442C47.234,10.022,47.615,10,48,10a11.989,11.989,0,0,1,8.249,20.7,8.972,8.972,0,0,1,1.4,13.349A13,13,0,1,1,32,47" fill="none" stroke="currentColor" stroke-miterlimit="10"/><path d="M46,30.021A4.986,4.986,0,0,1,43,39" fill="none" stroke="currentColor" stroke-miterlimit="10"/><path d="M18,30.021A4.986,4.986,0,0,0,21,39" fill="none" stroke="currentColor" stroke-miterlimit="10"/><line x1="32" y1="46.933" x2="32" y2="36" fill="none" stroke="currentColor" stroke-miterlimit="10"/><circle cx="19" cy="21" r="3" fill="none" stroke-miterlimit="10" data-color="color-2"/><circle cx="20" cy="47" r="3" fill="none" stroke-miterlimit="10" data-color="color-2"/><circle cx="32" cy="33" r="3" fill="none" stroke-miterlimit="10" data-color="color-2"/><circle cx="45" cy="21" r="3" fill="none" stroke-miterlimit="10" data-color="color-2"/><circle cx="44" cy="47" r="3" fill="none" stroke-miterlimit="10" data-color="color-2"/><path d="M48,34a11.948,11.948,0,0,0,8.249-3.3" fill="none" stroke="currentColor" stroke-miterlimit="10"/><path d="M7.751,30.7A11.948,11.948,0,0,0,16,34" fill="none" stroke="currentColor" stroke-miterlimit="10"/></g></svg>