<svg xmlns="http://www.w3.org/2000/svg" viewBox="0 0 64 64" stroke="none" width="32" height="32"><title>boxing glove</title><g class="nc-icon-wrapper" stroke-linecap="round" stroke-linejoin="round" stroke-width="2" stroke="currentColor"><polyline data-color="color-2" points="52 54 52 62 18 62 18 54" fill="none" stroke-miterlimit="10"/> <path data-cap="butt" d="M58,14V36A12,12,0,0,1,46,48H18A12,12,0,0,1,6,36V26a6,6,0,0,1,6-6h8a8,8,0,0,1,8,8h0a8,8,0,0,1-8,8H18" fill="none" stroke="currentColor" stroke-miterlimit="10"/> <path data-cap="butt" d="M11.605,20A11.944,11.944,0,0,1,10,14h0A12,12,0,0,1,22,2H46A12,12,0,0,1,58,14h0A12,12,0,0,1,46,26H27.747" fill="none" stroke="currentColor" stroke-miterlimit="10"/> <line data-color="color-2" x1="30" y1="55" x2="40" y2="55" fill="none" stroke-miterlimit="10"/></g></svg>