<svg xmlns="http://www.w3.org/2000/svg" viewBox="0 0 64 64" width="32" height="32"><title>browser firefox</title><g class="nc-icon-wrapper" stroke-linecap="round" stroke-linejoin="round" stroke-width="2" stroke="currentColor"><path data-cap="butt" data-color="color-2" fill="none" stroke-miterlimit="10" d="M9.983,12.435 C15.288,6.598,22.88,3,31.389,3c4.767,0,9.261,1.157,13.228,3.195"/> <path fill="none" stroke="currentColor" stroke-miterlimit="10" d="M24.12,25.62c1.23-1.547,5.561-2.919,6.452-5.095 c0.211-0.515,0.45-1.726-0.24-1.98c-1.147-0.275-3.872-0.284-4.88-0.276c-1.919,0.016-2.776-1.392-2.979-2.076 c-0.202-0.684-0.597-2.313,3.947-6.061c-5.051-0.736-7.637,2.768-7.971,3.299c-2.721-0.676-5.031-0.513-6.962,0.106 c-0.002-0.001-0.005-0.003-0.007-0.005c-3.195-1.533-3.395-5.755-3.395-5.755S4.037,11.034,5.03,18.454 c-5.277,10.869-1.388,23.698,0.87,27.562C7.959,49.544,15.523,61,33.342,61s26.934-16.52,25.465-20.488 c2.181-4.339,3.14-9.464,2.697-14.159C60.471,15.4,50.252,8.083,50.252,8.083s0.124,0.701,0.313,2.197 c-2.698-2.914-4.923-4.406-8.678-4.406c5.156,3.717,10.086,13.917,9.685,22.487c-1.16-2.959-2.749-4.189-2.749-4.189 c1.35,12.347-5.194,21.224-10.31,22.233c-3.829,0.755-10.969,0.44-15.562-4.943c2.855,0.699,6.727,0.402,9.034-1.195 c1.395-0.965,2.946-2.293,4.431-2.223c1.158,0.054,1.85-0.867,0.985-1.857c-0.862-0.991-3.147-2.865-5.798-1.61 c-7.28,3.448-12.136-1.649-11.294-4.637c0.543-1.929,2.345-1.615,3.664-0.406C23.974,29.534,24.655,27.447,24.12,25.62z"/></g></svg>