<svg xmlns="http://www.w3.org/2000/svg" viewBox="0 0 64 64" width="32" height="32"><title>dmg</title><g class="nc-icon-wrapper"><path data-color="color-2" data-stroke="none" d="M25,42.3c0,1.5-0.4,2.7-1.3,3.5c-0.9,0.8-2.1,1.2-3.8,1.2h-2.6v-9.3h2.9 c1.5,0,2.7,0.4,3.5,1.2C24.5,39.7,25,40.8,25,42.3z M22.9,42.3c0-2-0.9-3-2.6-3h-1v6h0.8C22,45.4,22.9,44.4,22.9,42.3z" stroke-linejoin="round" stroke-linecap="round"/> <path data-color="color-2" data-stroke="none" d="M31.1,47l-2.2-7.3h-0.1c0.1,1.5,0.1,2.5,0.1,3V47h-1.8v-9.3h2.7l2.2,7.1h0 l2.3-7.1h2.7V47h-1.8v-4.4c0-0.2,0-0.4,0-0.7c0-0.3,0-1,0.1-2.2h-0.1L32.9,47H31.1z" stroke-linejoin="round" stroke-linecap="round"/> <path data-color="color-2" data-stroke="none" d="M43.2,41.8h3.7v4.8c-0.6,0.2-1.2,0.3-1.7,0.4c-0.5,0.1-1.1,0.1-1.6,0.1 c-1.4,0-2.5-0.4-3.2-1.2c-0.7-0.8-1.1-2-1.1-3.5c0-1.5,0.4-2.7,1.3-3.5c0.9-0.8,2-1.3,3.6-1.3c1,0,1.9,0.2,2.8,0.6l-0.7,1.6 c-0.7-0.3-1.4-0.5-2.1-0.5c-0.9,0-1.5,0.3-2,0.9s-0.8,1.3-0.8,2.3c0,1,0.2,1.8,0.6,2.3c0.4,0.5,1,0.8,1.8,0.8c0.4,0,0.8,0,1.3-0.1 v-1.9h-1.8V41.8z" stroke-linejoin="round" stroke-linecap="round"/> <polyline data-cap="butt" fill="none" stroke="currentColor" stroke-width="2" stroke-miterlimit="10" points="40,2 40,18 56,18 " stroke-linejoin="round" stroke-linecap="round"/> <polyline fill="none" stroke="currentColor" stroke-width="2" stroke-linecap="round" stroke-miterlimit="10" points="56,32 56,18 40,2 8,2 8,32 " stroke-linejoin="round"/> <polyline fill="none" stroke="currentColor" stroke-width="2" stroke-linecap="round" stroke-miterlimit="10" points="8,53 8,62 56,62 56,53 " stroke-linejoin="round"/> <line data-cap="butt" fill="none" stroke="currentColor" stroke-width="2" stroke-miterlimit="10" x1="61" y1="32" x2="3" y2="32" stroke-linejoin="round" stroke-linecap="round"/> <polyline data-cap="butt" fill="none" stroke="currentColor" stroke-width="2" stroke-miterlimit="10" points="8,27 3,32 3,53 61,53 61,32 56,27 " stroke-linejoin="round" stroke-linecap="round"/></g></svg>