<svg xmlns="http://www.w3.org/2000/svg" viewBox="0 0 64 64" width="32" height="32"><title>docx 2</title><g class="nc-icon-wrapper"><path data-color="color-2" data-stroke="none" d="M22,42.3c0,1.5-0.4,2.7-1.3,3.5S18.6,47,16.9,47h-2.6v-9.3h2.9 c1.5,0,2.7,0.4,3.5,1.2C21.6,39.7,22,40.8,22,42.3z M20,42.3c0-2-0.9-3-2.6-3h-1v6h0.8C19,45.4,20,44.4,20,42.3z" stroke-linejoin="round" stroke-linecap="round"/> <path data-color="color-2" data-stroke="none" d="M32.6,42.3c0,1.5-0.4,2.7-1.1,3.5c-0.8,0.8-1.9,1.2-3.3,1.2s-2.5-0.4-3.3-1.2 c-0.8-0.8-1.1-2-1.1-3.6c0-1.5,0.4-2.7,1.1-3.5s1.9-1.2,3.3-1.2s2.5,0.4,3.3,1.2C32.2,39.6,32.6,40.8,32.6,42.3z M25.8,42.3 c0,1,0.2,1.8,0.6,2.3s1,0.8,1.8,0.8c1.6,0,2.4-1,2.4-3.1c0-2.1-0.8-3.1-2.3-3.1c-0.8,0-1.4,0.3-1.8,0.8C26,40.5,25.8,41.3,25.8,42.3 z" stroke-linejoin="round" stroke-linecap="round"/> <path data-color="color-2" data-stroke="none" d="M38.7,39.2c-0.7,0-1.3,0.3-1.7,0.8s-0.6,1.3-0.6,2.3c0,2.1,0.8,3.1,2.3,3.1 c0.7,0,1.4-0.2,2.4-0.5v1.7c-0.8,0.3-1.6,0.5-2.6,0.5c-1.4,0-2.4-0.4-3.1-1.2c-0.7-0.8-1.1-2-1.1-3.5c0-1,0.2-1.8,0.5-2.5 s0.9-1.3,1.5-1.7c0.7-0.4,1.4-0.6,2.3-0.6c0.9,0,1.8,0.2,2.7,0.7l-0.6,1.6c-0.3-0.2-0.7-0.3-1-0.4S39.1,39.2,38.7,39.2z" stroke-linejoin="round" stroke-linecap="round"/> <path data-color="color-2" data-stroke="none" d="M50.9,47h-2.2l-2.2-3.5L44.3,47h-2.1l3.1-4.8l-2.9-4.5h2.2l2,3.3l2-3.3h2.1 l-2.9,4.6L50.9,47z" stroke-linejoin="round" stroke-linecap="round"/> <polyline data-cap="butt" fill="none" stroke="currentColor" stroke-width="2" stroke-miterlimit="10" points="40,2 40,18 56,18 " stroke-linejoin="round" stroke-linecap="round"/> <polyline fill="none" stroke="currentColor" stroke-width="2" stroke-linecap="round" stroke-miterlimit="10" points="56,32 56,18 40,2 8,2 8,32 " stroke-linejoin="round"/> <polyline fill="none" stroke="currentColor" stroke-width="2" stroke-linecap="round" stroke-miterlimit="10" points="8,53 8,62 56,62 56,53 " stroke-linejoin="round"/> <line data-cap="butt" fill="none" stroke="currentColor" stroke-width="2" stroke-miterlimit="10" x1="61" y1="32" x2="3" y2="32" stroke-linejoin="round" stroke-linecap="round"/> <polyline data-cap="butt" fill="none" stroke="currentColor" stroke-width="2" stroke-miterlimit="10" points="8,27 3,32 3,53 61,53 61,32 56,27 " stroke-linejoin="round" stroke-linecap="round"/></g></svg>