<svg width="64" height="64" fill="none" xmlns="http://www.w3.org/2000/svg">
  <path d="M32 2v8M2 52l8-4M62 52l-8-4M10 20l22 10 22-10M32 30v28" stroke="#69C1DB" stroke-miterlimit="10" stroke-linecap="round" stroke-linejoin="round"/>
  <path d="M54 20L32 10 10 20v28l22 10 22-10V20z" stroke="#69C1DB" stroke-miterlimit="10" stroke-linecap="round" stroke-linejoin="round"/>
  <path d="M10 20l11 5 11-5M21 25v14" stroke="#69C1DB" stroke-miterlimit="10" stroke-linecap="round" stroke-linejoin="round"/>
  <path d="M32 20l-11-5-11 5v14l11 5" stroke="#69C1DB" stroke-miterlimit="10" stroke-linecap="round" stroke-linejoin="round"/>
  <path d="M21 25l11 5 11-5M32 30v14" stroke="#69C1DB" stroke-miterlimit="10" stroke-linecap="round" stroke-linejoin="round"/>
  <path d="M43 25l-11-5-11 5v14l11 5 11-5V25zM2 3.917l6.417 2.916 6.416-2.916M8.417 6.833V15" stroke="#69C1DB" stroke-miterlimit="10" stroke-linecap="round" stroke-linejoin="round"/>
  <path d="M14.833 3.917L8.417 1 2 3.917v8.166L8.417 15l6.416-2.917V3.917zM43 25l11-5M43 25v14M21 15l11 5 11-5M43 15l-11-5-11 5M10 34l11 5M21 39v14M10 34v14l11 5m11-19v14-14zM21 39l11 5 11-5M32 44v14" stroke="#69C1DB" stroke-miterlimit="10" stroke-linecap="round" stroke-linejoin="round"/>
  <path d="M43 39v14l-11 5-11-5V39M43 39l11-5M43 39v14M54 34v14l-11 5" stroke="#69C1DB" stroke-miterlimit="10" stroke-linecap="round" stroke-linejoin="round"/>
  <path d="M12 9c3.97 0 9 3 9 11" stroke="#69C1DB" stroke-miterlimit="16" stroke-linecap="round" stroke-dasharray="2 2"/>
</svg>