<svg id="Layer_1" data-name="Layer 1" width="64" height="64" viewBox="0 0 64 64"><g fill="#5751e3"><title>filerevit</title><path fill="none" stroke="#5751e3" stroke-linecap="round" stroke-linejoin="round" stroke-width="2" d="M20 1v8h8"></path><path fill="none" stroke="#5751e3" stroke-linecap="round" stroke-linejoin="round" stroke-width="2" d="M28 16V9l-8-8H4v15"></path><path fill="none" stroke="#5751e3" stroke-linecap="round" stroke-linejoin="round" stroke-width="2" d="M4 26.5V31h24v-4.5"></path><path fill="none" stroke="#5751e3" stroke-linecap="round" stroke-linejoin="round" stroke-width="2" d="M30.5 16h-29"></path><path fill="none" stroke="#5751e3" stroke-linecap="round" stroke-linejoin="round" stroke-width="2" d="M4 13.5L1.5 16v10.5h29V16L28 13.5"></path><path d="M8.473 18.85c1.086 0 1.807.54 1.807 1.541a1.373 1.373 0 0 1-.89 1.333l.981 1.806H9.312l-.826-1.637h-.675v1.637h-.983v-4.68zm-.662.838v1.4h.714a.657.657 0 0 0 .747-.7.68.68 0 0 0-.773-.7z"></path><path d="M11.333 23.53v-4.68h3.01v.838h-2.009v1.067h1.7v.806h-1.7v1.13h2.106v.839z"></path><path d="M17.17 23.6h-.039l-2.308-4.75h1.092l.611 1.352c.241.539.455 1 .618 1.456.136-.331.422-.994.63-1.456l.612-1.352h1.085z"></path><path d="M20.159 23.53v-4.68h1v4.68z"></path><path d="M24.3 19.688v3.842h-1v-3.842h-1.307v-.838h3.62v.838z"></path></g></svg>