<svg xmlns="http://www.w3.org/2000/svg" viewBox="0 0 32 32">
  <defs/>
  <g class="nc-icon-wrapper">
    <path fill="none" stroke="currentColor" stroke-linecap="round" stroke-linejoin="round" stroke-miterlimit="10" d="M22 1v6h6" class="st0"/>
    <path fill="none" stroke="currentColor" stroke-linecap="round" stroke-linejoin="round" stroke-miterlimit="10" d="M22 1H4v30h24V7z" class="st0"/>
    <path fill="none" stroke="currentColor" stroke-linecap="round" stroke-linejoin="round" stroke-miterlimit="10" d="M15.8 18.7c-.1 0-.3-.1-.3-.3l-.7-3.7-5.7 3.6 10.4 1.3.1-.1-3.8-.8z" class="st0"/>
    <path fill="none" stroke="currentColor" stroke-linecap="round" stroke-linejoin="round" stroke-miterlimit="10" d="M14.8 11.7c-.3-.1-.6.2-.5.5l.4 2.3v.2l.4-.3c.1-.1.3-.1.4 0l3.3 2.3 1.9 1.3c.2.2.2.5 0 .7l-1.3.9 3.3.7-6.2-8.3-1.7-.3z" class="st0"/>
  </g>
</svg>