<svg xmlns="http://www.w3.org/2000/svg" viewBox="0 0 64 64" width="32" height="32"><title>mp4</title><g class="nc-icon-wrapper"><path data-color="color-2" data-stroke="none" d="M22.9,47l-2.2-7.3h-0.1c0.1,1.5,0.1,2.5,0.1,3V47H19v-9.3h2.7l2.2,7.1h0l2.3-7.1 h2.7V47h-1.8v-4.4c0-0.2,0-0.4,0-0.7c0-0.3,0-1,0.1-2.2h-0.1L24.7,47H22.9z" stroke-linejoin="round" stroke-linecap="round"/> <path data-color="color-2" data-stroke="none" d="M37.9,40.6c0,1-0.3,1.8-0.9,2.3c-0.6,0.5-1.5,0.8-2.7,0.8h-0.8V47h-2v-9.3h3 c1.1,0,2,0.2,2.6,0.7C37.6,38.9,37.9,39.7,37.9,40.6z M33.5,42.1h0.6c0.6,0,1.1-0.1,1.4-0.4s0.5-0.6,0.5-1c0-0.5-0.1-0.8-0.4-1 c-0.3-0.2-0.6-0.3-1.2-0.3h-0.9V42.1z" stroke-linejoin="round" stroke-linecap="round"/> <path data-color="color-2" data-stroke="none" d="M46,45.1h-1.1V47h-1.9v-1.9h-4v-1.4l4.1-6h1.8v5.8H46V45.1z M42.9,43.6V42 c0-0.3,0-0.6,0-1.1c0-0.5,0-0.8,0.1-0.9H43c-0.2,0.3-0.3,0.7-0.6,1l-1.7,2.6H42.9z" stroke-linejoin="round" stroke-linecap="round"/> <polyline data-cap="butt" fill="none" stroke="currentColor" stroke-width="2" stroke-miterlimit="10" points="40,2 40,18 56,18 " stroke-linejoin="round" stroke-linecap="round"/> <polyline fill="none" stroke="currentColor" stroke-width="2" stroke-linecap="round" stroke-miterlimit="10" points="56,32 56,18 40,2 8,2 8,32 " stroke-linejoin="round"/> <polyline fill="none" stroke="currentColor" stroke-width="2" stroke-linecap="round" stroke-miterlimit="10" points="8,53 8,62 56,62 56,53 " stroke-linejoin="round"/> <line data-cap="butt" fill="none" stroke="currentColor" stroke-width="2" stroke-miterlimit="10" x1="61" y1="32" x2="3" y2="32" stroke-linejoin="round" stroke-linecap="round"/> <polyline data-cap="butt" fill="none" stroke="currentColor" stroke-width="2" stroke-miterlimit="10" points="8,27 3,32 3,53 61,53 61,32 56,27 " stroke-linejoin="round" stroke-linecap="round"/></g></svg>