<svg xmlns="http://www.w3.org/2000/svg" viewBox="0 0 64 64" width="32" height="32"><title>mpg</title><g class="nc-icon-wrapper"><path data-color="color-2" data-stroke="none" d="M21.9,47l-2.2-7.3h-0.1c0.1,1.5,0.1,2.5,0.1,3V47H18v-9.3h2.7l2.2,7.1h0l2.3-7.1 h2.7V47h-1.8v-4.4c0-0.2,0-0.4,0-0.7c0-0.3,0-1,0.1-2.2h-0.1L23.7,47H21.9z" stroke-linejoin="round" stroke-linecap="round"/> <path data-color="color-2" data-stroke="none" d="M36.9,40.6c0,1-0.3,1.8-0.9,2.3c-0.6,0.5-1.5,0.8-2.7,0.8h-0.8V47h-2v-9.3h3 c1.1,0,2,0.2,2.6,0.7C36.6,38.9,36.9,39.7,36.9,40.6z M32.5,42.1h0.6c0.6,0,1.1-0.1,1.4-0.4c0.3-0.2,0.5-0.6,0.5-1 c0-0.5-0.1-0.8-0.4-1s-0.6-0.3-1.2-0.3h-0.9V42.1z" stroke-linejoin="round" stroke-linecap="round"/> <path data-color="color-2" data-stroke="none" d="M42.5,41.8h3.7v4.8c-0.6,0.2-1.2,0.3-1.7,0.4c-0.5,0.1-1.1,0.1-1.6,0.1 c-1.4,0-2.5-0.4-3.2-1.2s-1.1-2-1.1-3.5c0-1.5,0.4-2.7,1.3-3.5c0.9-0.8,2-1.3,3.6-1.3c1,0,1.9,0.2,2.8,0.6l-0.7,1.6 c-0.7-0.3-1.4-0.5-2.1-0.5c-0.8,0-1.5,0.3-2,0.9c-0.5,0.6-0.8,1.3-0.8,2.3c0,1,0.2,1.8,0.6,2.3c0.4,0.5,1,0.8,1.8,0.8 c0.4,0,0.8,0,1.2-0.1v-1.9h-1.8V41.8z" stroke-linejoin="round" stroke-linecap="round"/> <polyline data-cap="butt" fill="none" stroke="currentColor" stroke-width="2" stroke-miterlimit="10" points="40,2 40,18 56,18 " stroke-linejoin="round" stroke-linecap="round"/> <polyline fill="none" stroke="currentColor" stroke-width="2" stroke-linecap="round" stroke-miterlimit="10" points="56,32 56,18 40,2 8,2 8,32 " stroke-linejoin="round"/> <polyline fill="none" stroke="currentColor" stroke-width="2" stroke-linecap="round" stroke-miterlimit="10" points="8,53 8,62 56,62 56,53 " stroke-linejoin="round"/> <line data-cap="butt" fill="none" stroke="currentColor" stroke-width="2" stroke-miterlimit="10" x1="61" y1="32" x2="3" y2="32" stroke-linejoin="round" stroke-linecap="round"/> <polyline data-cap="butt" fill="none" stroke="currentColor" stroke-width="2" stroke-miterlimit="10" points="8,27 3,32 3,53 61,53 61,32 56,27 " stroke-linejoin="round" stroke-linecap="round"/></g></svg>