<svg xmlns="http://www.w3.org/2000/svg" viewBox="0 0 64 64" width="32" height="32"><g class="nc-icon-wrapper" stroke-linecap="square" stroke-width="2" stroke="currentColor" fill="none" stroke-miterlimit="10"><path data-color="color-2" d="M38 19c0 4.971 4.029 11 9 11s9-6.029 9-11-4.029-9-9-9-9 4.029-9 9z"/><path data-cap="butt" data-color="color-2" d="M48 50h14v-4.324c0-2.446-1.47-4.657-3.742-5.562C55.657 39.077 51.8 38 47 38s-8.657 1.077-11.258 2.113a5.874 5.874 0 00-2.605 2.036" stroke-linecap="butt"/><path d="M40 56H2v-5.63a7.975 7.975 0 014.466-7.182C9.668 41.628 14.554 40 21 40s11.332 1.628 14.534 3.188A7.975 7.975 0 0140 50.37V56zM32 19c0 6.075-4.925 13-11 13s-11-6.925-11-13S14.925 8 21 8s11 4.925 11 11z"/></g></svg>