<svg xmlns="http://www.w3.org/2000/svg" viewBox="0 0 64 64" width="32" height="32"><title>obj</title><g class="nc-icon-wrapper"><path data-color="color-2" data-stroke="none" d="M29.6,42.3c0,1.5-0.4,2.7-1.1,3.5c-0.8,0.8-1.9,1.2-3.3,1.2s-2.5-0.4-3.3-1.2 c-0.8-0.8-1.1-2-1.1-3.6c0-1.5,0.4-2.7,1.1-3.5c0.8-0.8,1.9-1.2,3.3-1.2s2.5,0.4,3.3,1.2C29.3,39.6,29.6,40.8,29.6,42.3z M22.9,42.3 c0,1,0.2,1.8,0.6,2.3s1,0.8,1.8,0.8c1.6,0,2.4-1,2.4-3.1c0-2.1-0.8-3.1-2.3-3.1c-0.8,0-1.4,0.3-1.8,0.8 C23.1,40.5,22.9,41.3,22.9,42.3z" stroke-linejoin="round" stroke-linecap="round"/> <path data-color="color-2" data-stroke="none" d="M31.8,37.7h2.9c1.3,0,2.3,0.2,2.9,0.6c0.6,0.4,0.9,1,0.9,1.8c0,0.6-0.1,1-0.4,1.4 c-0.3,0.4-0.6,0.6-1,0.6v0.1c0.6,0.1,1,0.4,1.3,0.7c0.3,0.4,0.4,0.8,0.4,1.4c0,0.8-0.3,1.5-0.9,2c-0.6,0.5-1.4,0.7-2.5,0.7h-3.5 V37.7z M33.8,41.4h1.1c0.5,0,0.9-0.1,1.2-0.2c0.2-0.2,0.4-0.4,0.4-0.8c0-0.4-0.1-0.6-0.4-0.8c-0.3-0.2-0.7-0.2-1.2-0.2h-1V41.4z M33.8,43v2.4h1.3c0.5,0,0.9-0.1,1.2-0.3c0.3-0.2,0.4-0.5,0.4-1c0-0.8-0.6-1.2-1.7-1.2H33.8z" stroke-linejoin="round" stroke-linecap="round"/> <path data-color="color-2" data-stroke="none" d="M39.8,49.7c-0.4,0-0.8,0-1.2-0.1V48c0.3,0.1,0.6,0.1,0.9,0.1 c0.4,0,0.7-0.1,0.9-0.4s0.3-0.7,0.3-1.3v-8.7h2v8.7c0,1.1-0.2,1.9-0.7,2.5S40.8,49.7,39.8,49.7z" stroke-linejoin="round" stroke-linecap="round"/> <polyline data-cap="butt" fill="none" stroke="currentColor" stroke-width="2" stroke-miterlimit="10" points="40,2 40,18 56,18 " stroke-linejoin="round" stroke-linecap="round"/> <polyline fill="none" stroke="currentColor" stroke-width="2" stroke-linecap="round" stroke-miterlimit="10" points="56,32 56,18 40,2 8,2 8,32 " stroke-linejoin="round"/> <polyline fill="none" stroke="currentColor" stroke-width="2" stroke-linecap="round" stroke-miterlimit="10" points="8,53 8,62 56,62 56,53 " stroke-linejoin="round"/> <line data-cap="butt" fill="none" stroke="currentColor" stroke-width="2" stroke-miterlimit="10" x1="61" y1="32" x2="3" y2="32" stroke-linejoin="round" stroke-linecap="round"/> <polyline data-cap="butt" fill="none" stroke="currentColor" stroke-width="2" stroke-miterlimit="10" points="8,27 3,32 3,53 61,53 61,32 56,27 " stroke-linejoin="round" stroke-linecap="round"/></g></svg>