<svg xmlns="http://www.w3.org/2000/svg" viewBox="0 0 64 64" stroke="none" width="32" height="32"><title>referee</title><g class="nc-icon-wrapper" stroke-linecap="round" stroke-linejoin="round" stroke-width="2" stroke="currentColor"><rect x="30" y="56" width="22" height="6" fill="none" stroke="currentColor" stroke-miterlimit="10"/> <path d="M49,56l3.917-13.317a12,12,0,0,0-.173-7.311L46.349,16.9A7.618,7.618,0,0,0,41,12h0" fill="none" stroke="currentColor" stroke-miterlimit="10" data-cap="butt"/> <path d="M37,43V33a4,4,0,0,0-4-4h0a4,4,0,0,0-4,4V46c0,6,6,10,6,10" fill="none" stroke="currentColor" stroke-miterlimit="10" data-cap="butt"/> <polyline points="41 28 41 2 11 2 11 42 23 42" fill="none" stroke-miterlimit="10" data-color="color-2"/></g></svg>