<svg xmlns="http://www.w3.org/2000/svg" viewBox="0 0 64 64" width="32" height="32"><title>speaker 01 fill</title><g class="nc-icon-wrapper"><path d="M25,55H9c-0.552,0-1-0.448-1-1v-8c0-0.552,0.448-1,1-1s1,0.448,1,1v7h14v-3c0-0.552,0.448-1,1-1s1,0.448,1,1 v4C26,54.552,25.552,55,25,55z"/> <path data-color="color-2" d="M62,33h-6c-0.552,0-1-0.448-1-1s0.448-1,1-1h6c0.552,0,1,0.448,1,1S62.552,33,62,33z"/> <path data-color="color-2" d="M53.258,20.727c-0.346,0-0.682-0.179-0.867-0.5c-0.276-0.479-0.112-1.09,0.366-1.366 l4.724-2.727c0.479-0.276,1.09-0.112,1.366,0.366c0.276,0.479,0.112,1.09-0.366,1.366l-4.724,2.727 C53.599,20.684,53.427,20.727,53.258,20.727z"/> <path data-color="color-2" d="M57.98,48c-0.169,0-0.341-0.043-0.499-0.134l-4.724-2.727 c-0.478-0.276-0.642-0.888-0.366-1.366c0.276-0.478,0.886-0.643,1.366-0.366l4.724,2.727c0.478,0.276,0.642,0.888,0.366,1.366 C58.662,47.821,58.326,48,57.98,48z"/> <path d="M44,10c-0.552,0-1,0.448-1,1v2.228L3,23.704V22c0-0.552-0.448-1-1-1s-1,0.448-1,1v20c0,0.552,0.448,1,1,1 s1-0.448,1-1v-1.704l40,10.476V53c0,0.552,0.448,1,1,1s1-0.448,1-1V11C45,10.448,44.552,10,44,10z"/></g></svg>