<svg xmlns="http://www.w3.org/2000/svg" viewBox="0 0 64 64" width="32" height="32"><title>switches</title><g class="nc-icon-wrapper"><path fill="none" stroke="currentColor" stroke-width="2" stroke-linecap="round" stroke-miterlimit="10" d="M47,28H17 C9.8,28,4,22.2,4,15v0C4,7.8,9.8,2,17,2h30c7.2,0,13,5.8,13,13v0C60,22.2,54.2,28,47,28z" stroke-linejoin="round"/> <path data-color="color-2" fill="none" stroke="currentColor" stroke-width="2" stroke-linecap="round" stroke-miterlimit="10" d="M47,62H17 C9.8,62,4,56.2,4,49v0c0-7.2,5.8-13,13-13h30c7.2,0,13,5.8,13,13v0C60,56.2,54.2,62,47,62z" stroke-linejoin="round"/> <circle fill="none" stroke="currentColor" stroke-width="2" stroke-linecap="round" stroke-miterlimit="10" cx="17" cy="15" r="7" stroke-linejoin="round"/> <circle data-color="color-2" fill="none" stroke="currentColor" stroke-width="2" stroke-linecap="round" stroke-miterlimit="10" cx="47" cy="49" r="7" stroke-linejoin="round"/></g></svg>