<svg xmlns="http://www.w3.org/2000/svg" viewBox="0 0 64 64" width="32" height="32"><title>tiff</title><g class="nc-icon-wrapper"><path data-color="color-2" data-stroke="none" d="M23.3,47h-2v-7.6h-2.5v-1.6h7v1.6h-2.5V47z" stroke-linejoin="round" stroke-linecap="round"/> <path data-color="color-2" data-stroke="none" d="M27.5,47v-9.3h2V47H27.5z" stroke-linejoin="round" stroke-linecap="round"/> <path data-color="color-2" data-stroke="none" d="M34,47h-1.9v-9.3h5.3v1.6H34v2.4h3.1v1.6H34V47z" stroke-linejoin="round" stroke-linecap="round"/> <path data-color="color-2" data-stroke="none" d="M41.4,47h-1.9v-9.3h5.3v1.6h-3.4v2.4h3.1v1.6h-3.1V47z" stroke-linejoin="round" stroke-linecap="round"/> <polyline data-cap="butt" fill="none" stroke="currentColor" stroke-width="2" stroke-miterlimit="10" points="40,2 40,18 56,18 " stroke-linejoin="round" stroke-linecap="round"/> <polyline fill="none" stroke="currentColor" stroke-width="2" stroke-linecap="round" stroke-miterlimit="10" points="56,32 56,18 40,2 8,2 8,32 " stroke-linejoin="round"/> <polyline fill="none" stroke="currentColor" stroke-width="2" stroke-linecap="round" stroke-miterlimit="10" points="8,53 8,62 56,62 56,53 " stroke-linejoin="round"/> <line data-cap="butt" fill="none" stroke="currentColor" stroke-width="2" stroke-miterlimit="10" x1="61" y1="32" x2="3" y2="32" stroke-linejoin="round" stroke-linecap="round"/> <polyline data-cap="butt" fill="none" stroke="currentColor" stroke-width="2" stroke-miterlimit="10" points="8,27 3,32 3,53 61,53 61,32 56,27 " stroke-linejoin="round" stroke-linecap="round"/></g></svg>