<svg xmlns="http://www.w3.org/2000/svg" viewBox="0 0 64 64" width="32" height="32"><title>wallet 44</title><g class="nc-icon-wrapper"><line data-color="color-2" fill="none" stroke="currentColor" stroke-width="2" stroke-linecap="round" stroke-miterlimit="10" x1="38" y1="22" x2="34" y2="22" stroke-linejoin="round"/> <line data-color="color-2" fill="none" stroke="currentColor" stroke-width="2" stroke-linecap="round" stroke-miterlimit="10" x1="26" y1="22" x2="22" y2="22" stroke-linejoin="round"/> <line data-color="color-2" fill="none" stroke="currentColor" stroke-width="2" stroke-linecap="round" stroke-miterlimit="10" x1="14" y1="22" x2="10" y2="22" stroke-linejoin="round"/> <line data-color="color-2" fill="none" stroke="currentColor" stroke-width="2" stroke-linecap="round" stroke-miterlimit="10" x1="38" y1="52" x2="34" y2="52" stroke-linejoin="round"/> <line data-color="color-2" fill="none" stroke="currentColor" stroke-width="2" stroke-linecap="round" stroke-miterlimit="10" x1="50" y1="22" x2="46" y2="22" stroke-linejoin="round"/> <line data-color="color-2" fill="none" stroke="currentColor" stroke-width="2" stroke-linecap="round" stroke-miterlimit="10" x1="50" y1="52" x2="46" y2="52" stroke-linejoin="round"/> <line data-color="color-2" fill="none" stroke="currentColor" stroke-width="2" stroke-linecap="round" stroke-miterlimit="10" x1="26" y1="52" x2="22" y2="52" stroke-linejoin="round"/> <line data-color="color-2" fill="none" stroke="currentColor" stroke-width="2" stroke-linecap="round" stroke-miterlimit="10" x1="14" y1="52" x2="10" y2="52" stroke-linejoin="round"/> <circle data-stroke="none" cx="48" cy="37" r="2" stroke-linejoin="round" stroke-linecap="round"/> <path fill="none" stroke="currentColor" stroke-width="2" stroke-linecap="round" stroke-miterlimit="10" d="M7,15c-2.761,0-5-2.239-5-5 v0c0-2.761,2.239-5,5-5h40v4" stroke-linejoin="round"/> <path fill="none" stroke="currentColor" stroke-width="2" stroke-linecap="round" stroke-miterlimit="10" d="M58,31V15H7 c-2.761,0-5-2.239-5-5v41c0,4.418,3.582,8,8,8h48V43" stroke-linejoin="round"/> <path data-color="color-2" fill="none" stroke="currentColor" stroke-width="2" stroke-linecap="round" stroke-miterlimit="10" d="M62,43H48 c-3.314,0-6-2.686-6-6v0c0-3.314,2.686-6,6-6h14V43z" stroke-linejoin="round"/></g></svg>