<svg xmlns="http://www.w3.org/2000/svg" viewBox="0 0 64 64" width="32" height="32"><title>wav</title><g class="nc-icon-wrapper"><path data-color="color-2" data-stroke="none" d="M27,47h-2.2l-1.3-4.9c0-0.2-0.1-0.5-0.2-1.1C23.1,40.5,23,40.1,23,40 c0,0.2-0.1,0.6-0.2,1.1s-0.2,0.9-0.2,1.1L21.3,47h-2.2l-2.4-9.3h1.9l1.2,5.1c0.2,0.9,0.4,1.7,0.5,2.4c0-0.2,0.1-0.6,0.2-1.1 c0.1-0.5,0.2-0.9,0.3-1.2l1.4-5.2H24l1.4,5.2c0.1,0.2,0.1,0.6,0.2,1.1c0.1,0.5,0.2,0.9,0.2,1.2c0-0.3,0.1-0.7,0.2-1.2 s0.2-0.9,0.3-1.2l1.2-5.1h1.9L27,47z" stroke-linejoin="round" stroke-linecap="round"/> <path data-color="color-2" data-stroke="none" d="M36.4,47l-0.7-2.2h-3.4L31.7,47h-2.1l3.3-9.3h2.4l3.3,9.3H36.4z M35.3,43.1 c-0.6-2-1-3.1-1.1-3.4c-0.1-0.3-0.1-0.5-0.2-0.6c-0.1,0.5-0.5,1.9-1.2,4H35.3z" stroke-linejoin="round" stroke-linecap="round"/> <path data-color="color-2" data-stroke="none" d="M45.3,37.7h2L44.1,47H42l-3.1-9.3h2l1.7,5.5c0.1,0.3,0.2,0.7,0.3,1.1 c0.1,0.4,0.2,0.7,0.2,0.9c0-0.4,0.2-1.1,0.5-2L45.3,37.7z" stroke-linejoin="round" stroke-linecap="round"/> <polyline data-cap="butt" fill="none" stroke="currentColor" stroke-width="2" stroke-miterlimit="10" points="40,2 40,18 56,18 " stroke-linejoin="round" stroke-linecap="round"/> <polyline fill="none" stroke="currentColor" stroke-width="2" stroke-linecap="round" stroke-miterlimit="10" points="56,32 56,18 40,2 8,2 8,32 " stroke-linejoin="round"/> <polyline fill="none" stroke="currentColor" stroke-width="2" stroke-linecap="round" stroke-miterlimit="10" points="8,53 8,62 56,62 56,53 " stroke-linejoin="round"/> <line data-cap="butt" fill="none" stroke="currentColor" stroke-width="2" stroke-miterlimit="10" x1="61" y1="32" x2="3" y2="32" stroke-linejoin="round" stroke-linecap="round"/> <polyline data-cap="butt" fill="none" stroke="currentColor" stroke-width="2" stroke-miterlimit="10" points="8,27 3,32 3,53 61,53 61,32 56,27 " stroke-linejoin="round" stroke-linecap="round"/></g></svg>